<?xml version="1.0" encoding="UTF-8" standalone="no"?>
<!-- Created with Inkscape (http://www.inkscape.org/) -->

<svg
   xmlns:dc="http://purl.org/dc/elements/1.1/"
   xmlns:cc="http://creativecommons.org/ns#"
   xmlns:rdf="http://www.w3.org/1999/02/22-rdf-syntax-ns#"
   xmlns:svg="http://www.w3.org/2000/svg"
   xmlns="http://www.w3.org/2000/svg"
   xmlns:sodipodi="http://sodipodi.sourceforge.net/DTD/sodipodi-0.dtd"
   xmlns:inkscape="http://www.inkscape.org/namespaces/inkscape"
   width="8.6006784mm"
   height="9.3099604mm"
   viewBox="0 0 8.6006782 9.3099601"
   version="1.1"
   id="svg844"
   inkscape:version="0.92.4 5da689c313, 2019-01-14"
   sodipodi:docname="glass.svg">
  <defs
     id="defs838" />
  <sodipodi:namedview
     id="base"
     pagecolor="#ffffff"
     bordercolor="#666666"
     borderopacity="1.0"
     inkscape:pageopacity="0.0"
     inkscape:pageshadow="2"
     inkscape:zoom="5.6"
     inkscape:cx="-42.152968"
     inkscape:cy="39.390503"
     inkscape:document-units="mm"
     inkscape:current-layer="layer1"
     showgrid="false"
     fit-margin-top="1"
     fit-margin-left="1"
     fit-margin-right="1"
     fit-margin-bottom="1"
     inkscape:window-width="3840"
     inkscape:window-height="2086"
     inkscape:window-x="5760"
     inkscape:window-y="0"
     inkscape:window-maximized="1" />
  <metadata
     id="metadata841">
    <rdf:RDF>
      <cc:Work
         rdf:about="">
        <dc:format>image/svg+xml</dc:format>
        <dc:type
           rdf:resource="http://purl.org/dc/dcmitype/StillImage" />
        <dc:title></dc:title>
      </cc:Work>
    </rdf:RDF>
  </metadata>
  <g
     inkscape:label="Vrstva 1"
     inkscape:groupmode="layer"
     id="layer1"
     transform="translate(-96.241325,-113.18433)">
    <path
       inkscape:connector-curvature="0"
       id="path42"
       style="fill:#59402c;fill-opacity:1;fill-rule:nonzero;stroke:none;stroke-width:0.35277775"
       d="m 103.78146,114.50959 c 0.0568,-0.0519 0.0759,-0.1337 0.0476,-0.20567 -0.0282,-0.0723 -0.0974,-0.11959 -0.17462,-0.11959 h -6.225474 c -0.07761,0 -0.147109,0.0473 -0.174978,0.11959 -0.02787,0.072 -0.0088,0.15381 0.04798,0.20567 l 3.052232,2.80493 v 3.3962 l -1.731432,0.66287 c -0.02787,0.0109 -0.04445,0.0402 -0.03916,0.0695 0.0053,0.0296 0.0314,0.0512 0.06174,0.0512 h 3.792712 c 0.03,0 0.0557,-0.0215 0.0614,-0.0512 0.006,-0.0293 -0.0109,-0.0586 -0.0392,-0.0695 l -1.73108,-0.66287 v -3.3962 z" />
  </g>
</svg>
