<?xml version="1.0" encoding="UTF-8" standalone="no"?>
<svg
   xmlns:dc="http://purl.org/dc/elements/1.1/"
   xmlns:cc="http://creativecommons.org/ns#"
   xmlns:rdf="http://www.w3.org/1999/02/22-rdf-syntax-ns#"
   xmlns:svg="http://www.w3.org/2000/svg"
   xmlns="http://www.w3.org/2000/svg"
   viewBox="0 0 512.33959 284.97558"
   height="284.97559"
   width="512.3396"
   xml:space="preserve"
   id="svg2"
   version="1.1"><metadata
     id="metadata8"><rdf:RDF><cc:Work
         rdf:about=""><dc:format>image/svg+xml</dc:format><dc:type
           rdf:resource="http://purl.org/dc/dcmitype/StillImage" /><dc:title></dc:title></cc:Work></rdf:RDF></metadata><defs
     id="defs6"><clipPath
       id="clipPath20"
       clipPathUnits="userSpaceOnUse"><path
         id="path18"
         d="M 0,595.276 H 841.89 V 0 H 0 Z" /></clipPath><clipPath
       id="clipPath30"
       clipPathUnits="userSpaceOnUse"><path
         id="path28"
         d="M 0,0 H 841.89 V 595.276 H 0 Z" /></clipPath></defs><g
     transform="matrix(1.3333333,0,0,-1.3333333,-305.09026,577.13332)"
     id="g10"><g
       id="g24"><g
         clip-path="url(#clipPath30)"
         id="g26"><g
           transform="translate(291.4312,255.8693)"
           id="g32"><path
             id="path34"
             style="fill:#59402c;fill-opacity:1;fill-rule:nonzero;stroke:none"
             d="m 0,0 h 8.339 c 1.452,0 2.428,0.701 2.929,2.103 l 16.002,48.229 0.15,0.677 c 0,0.45 -0.163,0.826 -0.488,1.126 -0.327,0.301 -0.689,0.451 -1.09,0.451 h -6.761 c -0.651,0 -1.177,-0.176 -1.577,-0.526 -0.402,-0.351 -0.652,-0.726 -0.752,-1.127 L 4.132,12.47 -8.414,50.933 c -0.15,0.401 -0.426,0.776 -0.826,1.127 -0.402,0.35 -0.927,0.526 -1.578,0.526 h -6.686 c -0.45,0 -0.826,-0.15 -1.127,-0.451 -0.3,-0.3 -0.45,-0.676 -0.45,-1.126 0,-0.301 0.024,-0.526 0.075,-0.677 L -2.93,2.103 C -2.479,0.701 -1.502,0 0,0 m 37.936,0 h 32.679 c 0.55,0 1.001,0.175 1.352,0.526 0.35,0.35 0.526,0.776 0.526,1.277 v 5.409 c 0,0.5 -0.176,0.926 -0.526,1.277 -0.351,0.35 -0.802,0.526 -1.352,0.526 H 46.801 v 41.768 c 0,0.551 -0.163,0.989 -0.489,1.315 -0.326,0.325 -0.764,0.488 -1.314,0.488 h -7.062 c -0.501,0 -0.927,-0.163 -1.277,-0.488 -0.351,-0.326 -0.526,-0.764 -0.526,-1.315 V 1.803 c 0,-0.501 0.175,-0.927 0.526,-1.277 C 37.009,0.175 37.435,0 37.936,0 M 77.3,0 h 6.686 c 1.052,0 1.777,0.475 2.179,1.427 l 3.455,9.09 h 22.237 l 3.456,-9.09 C 115.713,0.475 116.439,0 117.491,0 h 6.686 c 0.4,0 0.763,0.15 1.089,0.451 0.326,0.3 0.489,0.676 0.489,1.127 l -0.151,0.676 -18.029,48.454 c -0.501,1.251 -1.403,1.878 -2.705,1.878 h -8.263 c -1.303,0 -2.204,-0.627 -2.705,-1.878 L 75.873,2.254 75.723,1.578 c 0,-0.451 0.15,-0.827 0.45,-1.127 C 76.474,0.15 76.85,0 77.3,0 m 23.439,42.369 8.489,-23.137 H 92.25 Z m 51.758,-43.12 c 4.257,0 8.001,0.627 11.231,1.878 3.231,1.251 5.734,3.067 7.513,5.446 1.777,2.378 2.666,5.195 2.666,8.452 0,2.954 -0.626,5.383 -1.878,7.287 -1.252,1.902 -3.192,3.48 -5.822,4.732 -2.629,1.252 -6.173,2.378 -10.63,3.381 -3.256,0.851 -5.735,1.615 -7.437,2.291 -1.703,0.676 -2.955,1.465 -3.756,2.367 -0.802,0.901 -1.202,2.028 -1.202,3.38 0,2.003 0.789,3.531 2.367,4.583 1.577,1.051 3.743,1.577 6.498,1.577 2.503,0 4.607,-0.539 6.31,-1.615 1.702,-1.078 2.679,-2.417 2.93,-4.019 0.4,-0.902 1.151,-1.352 2.253,-1.352 h 7.137 c 0.451,0 0.827,0.162 1.127,0.488 0.301,0.325 0.451,0.688 0.451,1.089 -0.101,2.153 -0.939,4.32 -2.517,6.498 -1.577,2.179 -3.882,3.994 -6.911,5.447 -3.031,1.452 -6.624,2.178 -10.78,2.178 -3.957,0 -7.426,-0.651 -10.405,-1.953 -2.98,-1.303 -5.271,-3.093 -6.874,-5.371 -1.603,-2.28 -2.404,-4.871 -2.404,-7.775 0,-4.308 1.377,-7.614 4.132,-9.917 2.754,-2.304 7.086,-4.157 12.996,-5.559 3.606,-0.952 6.323,-1.765 8.151,-2.441 1.828,-0.676 3.193,-1.465 4.095,-2.367 0.901,-0.901 1.352,-2.028 1.352,-3.38 0,-2.054 -0.89,-3.669 -2.667,-4.846 -1.778,-1.177 -4.421,-1.765 -7.926,-1.765 -3.105,0 -5.547,0.575 -7.324,1.728 -1.778,1.151 -2.918,2.579 -3.418,4.282 -0.301,0.451 -0.627,0.8 -0.977,1.052 -0.351,0.25 -0.801,0.375 -1.352,0.375 h -6.836 c -0.451,0 -0.827,-0.163 -1.127,-0.488 -0.301,-0.326 -0.451,-0.689 -0.451,-1.089 0.1,-2.605 0.977,-5.009 2.629,-7.212 1.653,-2.205 4.082,-3.982 7.287,-5.334 3.205,-1.352 7.062,-2.028 11.569,-2.028 M 181.494,0 h 6.686 c 1.052,0 1.777,0.475 2.179,1.427 l 3.455,9.09 h 22.237 l 3.455,-9.09 C 219.907,0.475 220.633,0 221.685,0 h 6.686 c 0.4,0 0.763,0.15 1.089,0.451 0.325,0.3 0.489,0.676 0.489,1.127 l -0.151,0.676 -18.029,48.454 c -0.501,1.251 -1.403,1.878 -2.705,1.878 h -8.263 c -1.303,0 -2.205,-0.627 -2.705,-1.878 L 180.067,2.254 179.917,1.578 c 0,-0.451 0.15,-0.827 0.45,-1.127 C 180.668,0.15 181.043,0 181.494,0 m 23.439,42.369 8.489,-23.137 H 196.444 Z M 240.164,0 h 6.761 c 0.551,0 1.002,0.175 1.352,0.526 0.35,0.35 0.526,0.776 0.526,1.277 V 21.185 L 266.758,1.352 c 0.049,-0.05 0.3,-0.289 0.751,-0.713 C 267.96,0.212 268.711,0 269.763,0 h 7.888 c 0.4,0 0.751,0.15 1.051,0.451 0.301,0.3 0.451,0.676 0.451,1.127 0,0.3 -0.101,0.625 -0.3,0.976 L 256.917,27.42 277.35,50.107 c 0.25,0.25 0.376,0.551 0.376,0.902 0,0.45 -0.163,0.826 -0.489,1.126 -0.326,0.301 -0.689,0.451 -1.089,0.451 h -7.662 c -1.202,0 -2.179,-0.451 -2.93,-1.352 L 248.803,33.129 v 17.579 c 0,0.551 -0.176,1.001 -0.526,1.352 -0.35,0.35 -0.801,0.526 -1.352,0.526 h -6.761 c -0.551,0 -0.989,-0.176 -1.314,-0.526 -0.327,-0.351 -0.489,-0.801 -0.489,-1.352 V 1.803 c 0,-0.501 0.175,-0.927 0.526,-1.277 C 239.237,0.175 239.663,0 240.164,0" /></g><g
           transform="translate(298.0411,343.513)"
           id="g36"><path
             id="path38"
             style="fill:#59402c;fill-opacity:1;fill-rule:nonzero;stroke:none"
             d="m 0,0 h 6.911 c 0.551,0 1.002,0.175 1.353,0.526 0.349,0.35 0.525,0.776 0.525,1.277 V 21.861 H 30.725 V 1.803 C 30.725,1.302 30.9,0.876 31.251,0.526 31.601,0.175 32.027,0 32.528,0 h 6.987 c 0.55,0 0.988,0.175 1.314,0.526 0.326,0.35 0.489,0.776 0.489,1.277 v 48.905 c 0,0.551 -0.163,1.001 -0.489,1.352 -0.326,0.35 -0.764,0.526 -1.314,0.526 h -6.987 c -0.501,0 -0.927,-0.176 -1.277,-0.526 C 30.9,51.709 30.725,51.259 30.725,50.708 V 31.401 H 8.789 v 19.307 c 0,0.551 -0.176,1.001 -0.525,1.352 -0.351,0.35 -0.802,0.526 -1.353,0.526 H 0 c -0.552,0 -0.99,-0.176 -1.315,-0.526 -0.326,-0.351 -0.488,-0.801 -0.488,-1.352 V 1.803 c 0,-0.501 0.175,-0.927 0.526,-1.277 C -0.927,0.175 -0.501,0 0,0 m 74.071,-0.751 c 6.81,0 12.132,1.728 15.964,5.183 3.831,3.456 5.846,8.589 6.047,15.4 0.1,2.904 0.15,5.034 0.15,6.386 0,1.401 -0.05,3.555 -0.15,6.461 -0.201,6.66 -2.266,11.768 -6.198,15.325 -3.932,3.555 -9.202,5.333 -15.813,5.333 -6.661,0 -11.945,-1.778 -15.851,-5.333 -3.906,-3.557 -5.96,-8.665 -6.16,-15.325 -0.05,-1.454 -0.075,-3.606 -0.075,-6.461 0,-2.805 0.025,-4.934 0.075,-6.386 0.2,-6.811 2.203,-11.944 6.01,-15.4 3.805,-3.455 9.139,-5.183 16.001,-5.183 m 0,8.714 c -3.356,0 -6.023,1.014 -8.001,3.043 -1.979,2.028 -3.017,5.095 -3.117,9.202 -0.051,1.503 -0.075,3.531 -0.075,6.085 0,2.604 0.024,4.632 0.075,6.085 0.1,4.106 1.151,7.174 3.155,9.203 2.003,2.028 4.658,3.042 7.963,3.042 3.255,0 5.884,-1.014 7.888,-3.042 2.002,-2.029 3.08,-5.097 3.23,-9.203 0.1,-2.905 0.151,-4.933 0.151,-6.085 0,-1.052 -0.051,-3.08 -0.151,-6.085 -0.15,-4.157 -1.202,-7.238 -3.155,-9.24 C 80.081,8.964 77.426,7.963 74.071,7.963 M 108.552,0 h 6.461 c 0.55,0 0.988,0.175 1.314,0.526 0.325,0.35 0.489,0.776 0.489,1.277 V 33.881 L 138.226,1.277 C 138.726,0.425 139.477,0 140.479,0 h 5.935 c 0.5,0 0.926,0.175 1.277,0.526 0.35,0.35 0.526,0.8 0.526,1.352 v 48.83 c 0,0.551 -0.176,1.001 -0.526,1.352 -0.351,0.35 -0.802,0.526 -1.352,0.526 h -6.461 c -0.551,0 -0.989,-0.176 -1.314,-0.526 -0.327,-0.351 -0.489,-0.801 -0.489,-1.352 V 17.954 L 116.59,51.309 c -0.501,0.851 -1.228,1.277 -2.178,1.277 h -5.86 c -0.552,0 -0.99,-0.176 -1.315,-0.526 -0.326,-0.351 -0.488,-0.801 -0.488,-1.352 V 1.803 c 0,-0.501 0.175,-0.927 0.526,-1.277 C 107.625,0.175 108.051,0 108.552,0 m 50.932,0 h 37.637 c 0.551,0 0.988,0.175 1.315,0.526 0.325,0.35 0.488,0.776 0.488,1.277 v 5.409 c 0,0.55 -0.163,0.988 -0.488,1.314 -0.327,0.326 -0.764,0.489 -1.315,0.489 h -25.467 l 25.467,33.805 c 0.65,0.751 0.977,1.627 0.977,2.629 v 5.259 c 0,0.551 -0.176,1.001 -0.526,1.352 -0.351,0.35 -0.802,0.526 -1.352,0.526 h -35.984 c -0.552,0 -0.99,-0.176 -1.315,-0.526 -0.326,-0.351 -0.488,-0.801 -0.488,-1.352 v -5.259 c 0,-0.551 0.175,-1.002 0.525,-1.352 0.35,-0.351 0.776,-0.526 1.278,-0.526 h 24.64 L 158.808,9.991 C 158.508,9.59 158.245,9.19 158.019,8.789 157.794,8.388 157.681,7.862 157.681,7.212 V 1.878 c 0,-0.552 0.162,-1.002 0.489,-1.352 C 158.495,0.175 158.933,0 159.484,0 m 45.75,0 h 6.686 c 1.052,0 1.777,0.475 2.179,1.427 l 3.455,9.09 h 22.237 l 3.456,-9.09 C 243.647,0.475 244.373,0 245.425,0 h 6.686 c 0.4,0 0.763,0.15 1.089,0.451 0.326,0.3 0.489,0.676 0.489,1.127 l -0.151,0.676 -18.029,48.454 c -0.501,1.251 -1.403,1.878 -2.705,1.878 h -8.263 c -1.303,0 -2.205,-0.627 -2.705,-1.878 L 203.807,2.254 203.657,1.578 c 0,-0.451 0.15,-0.827 0.45,-1.127 C 204.408,0.15 204.784,0 205.234,0 m 23.439,42.369 8.489,-23.137 h -16.978 z" /></g><g
           transform="translate(505.5474,334.8822)"
           id="g40"><path
             id="path42"
             style="fill:#59402c;fill-opacity:1;fill-rule:nonzero;stroke:none"
             d="M 0,0 C 0.161,0.147 0.215,0.379 0.135,0.583 0.055,0.788 -0.141,0.922 -0.36,0.922 h -17.647 c -0.22,0 -0.417,-0.134 -0.496,-0.339 C -18.582,0.379 -18.528,0.147 -18.367,0 l 8.652,-7.951 v -9.627 l -4.908,-1.879 c -0.079,-0.031 -0.126,-0.114 -0.111,-0.197 0.015,-0.084 0.089,-0.145 0.175,-0.145 h 10.751 c 0.085,0 0.158,0.061 0.174,0.145 0.016,0.083 -0.031,0.166 -0.111,0.197 l -4.907,1.879 v 9.627 z" /></g><g
           transform="translate(265.3477,327.0206)"
           id="g44"><path
             id="path46"
             style="fill:#59402c;fill-opacity:1;fill-rule:nonzero;stroke:none"
             d="m 0,0 c 0.355,0.088 0.767,0.133 1.24,0.133 h 214.376 c 0.519,0 0.943,-0.045 1.274,-0.133 0.332,-0.089 0.496,-0.193 0.496,-0.311 v -2.532 c 0,-0.13 -0.164,-0.236 -0.496,-0.319 -0.331,-0.083 -0.755,-0.124 -1.274,-0.124 H 1.24 c -0.473,0 -0.885,0.041 -1.24,0.124 -0.354,0.083 -0.53,0.189 -0.53,0.319 v 2.532 c 0,0.118 0.176,0.222 0.53,0.311" /></g><g
           transform="translate(510.5244,327.0206)"
           id="g48"><path
             id="path50"
             style="fill:#59402c;fill-opacity:1;fill-rule:nonzero;stroke:none"
             d="m 0,0 c 0.355,0.088 0.767,0.133 1.24,0.133 h 63.538 c 0.519,0 0.943,-0.045 1.274,-0.133 0.332,-0.089 0.496,-0.193 0.496,-0.311 v -2.532 c 0,-0.13 -0.164,-0.236 -0.496,-0.319 -0.331,-0.083 -0.755,-0.124 -1.274,-0.124 H 1.24 c -0.473,0 -0.885,0.041 -1.24,0.124 -0.354,0.083 -0.53,0.189 -0.53,0.319 v 2.532 c 0,0.118 0.176,0.222 0.53,0.311" /></g></g></g></g></svg>